<svg xmlns="http://www.w3.org/2000/svg" width="20" height="20" fill="none" viewBox="0 0 21 20" class="SVGWrapper-c62y5b-0 kaxtjN" color="currentColor" aria-hidden="false" role="img"><title>LinkedIn</title><g>
    <path fill="#FFF" fill-rule="evenodd" clip-rule="evenodd" d="M.936 2.184C.5 3.04.5 4.16.5 6.4v7.2c0 2.24 0 3.36.436 4.216a4 4 0 001.748 1.748C3.54 20 4.66 20 6.9 20h7.2c2.24 0 3.36 0 4.216-.436a4 4 0 001.748-1.748c.436-.856.436-1.976.436-4.216V6.4c0-2.24 0-3.36-.436-4.216A4 4 0 0018.316.436C17.46 0 16.34 0 14.1 0H6.9C4.66 0 3.54 0 2.684.436A4 4 0 00.936 2.184zm3.73 4.483v9.166h2.5V6.667h-2.5zM4.459 4.14c0 .812.654 1.47 1.459 1.47.806 0 1.458-.658 1.458-1.47 0-.812-.653-1.47-1.458-1.47-.805 0-1.458.658-1.458 1.47zm10.209 11.693h2.5v-5.632c0-4.378-4.67-4.219-5.834-2.064v-1.47h-2.5v9.166h2.5v-4.67c0-2.594 3.334-2.806 3.334 0v4.67z"></path>
  </g></svg>