<svg xmlns="http://www.w3.org/2000/svg" width="20" height="20" fill="none" viewBox="0 0 21 20" class="SVGWrapper-c62y5b-0 kaxtjN" color="currentColor" aria-hidden="false" role="img"><title>Twitter Icon</title><g>
    <path fill="#FFF" fill-rule="evenodd" clip-rule="evenodd" d="M0.5 6.4C0.5 4.15979 0.5 3.03969 0.935974 2.18404C1.31947 1.43139 1.93139 0.819467 2.68404 0.435974C3.53969 0 4.65979 0 6.9 0H14.1C16.3402 0 17.4603 0 18.316 0.435974C19.0686 0.819467 19.6805 1.43139 20.064 2.18404C20.5 3.03969 20.5 4.15979 20.5 6.4V13.6C20.5 15.8402 20.5 16.9603 20.064 17.816C19.6805 18.5686 19.0686 19.1805 18.316 19.564C17.4603 20 16.3402 20 14.1 20H6.9C4.65979 20 3.53969 20 2.68404 19.564C1.93139 19.1805 1.31947 18.5686 0.935974 17.816C0.5 16.9603 0.5 15.8402 0.5 13.6V6.4ZM15.6735 7.60187C15.6735 11.2667 12.9892 15.5 8.08363 15.5C6.58023 15.5 5.17567 15.0399 4 14.2603C4.20808 14.2874 4.42137 14.2982 4.63465 14.2982C5.88315 14.2982 7.03281 13.8543 7.94838 13.1073C6.78311 13.0856 5.79472 12.2844 5.45658 11.1801C5.61785 11.2126 5.78431 11.2288 5.95598 11.2288C6.20048 11.2288 6.43457 11.1964 6.65826 11.1314C5.44098 10.877 4.52021 9.75098 4.52021 8.40846V8.37057C4.87915 8.57628 5.29012 8.70079 5.72709 8.71703C5.01441 8.219 4.54102 7.36909 4.54102 6.40551C4.54102 5.89665 4.67107 5.42028 4.89996 5.00886C6.21609 6.68701 8.18247 7.79675 10.3986 7.91043C10.3569 7.70472 10.3309 7.4936 10.3309 7.27707C10.3309 5.74508 11.5274 4.5 12.9996 4.5C13.7643 4.5 14.4562 4.83563 14.9452 5.37697C15.5538 5.25246 16.126 5.0251 16.6411 4.70571C16.4382 5.35531 16.0168 5.90207 15.4654 6.24311C16.0064 6.17274 16.5214 6.02657 17 5.80463C16.6411 6.3622 16.1885 6.85482 15.6683 7.24459C15.6735 7.36368 15.6735 7.48278 15.6735 7.60187Z"></path>
  </g></svg>