<svg xmlns="http://www.w3.org/2000/svg" width="20" height="20" fill="none" viewBox="0 0 21 20" class="SVGWrapper-c62y5b-0 kaxtjN" color="currentColor" aria-hidden="false" role="img"><title>Youtube Icon</title><g>
    <path fill="#FFF" fill-rule="evenodd" clip-rule="evenodd" d="M0.935974 2.18404C0.5 3.03969 0.5 4.15979 0.5 6.4V13.6C0.5 15.8402 0.5 16.9603 0.935974 17.816C1.31947 18.5686 1.93139 19.1805 2.68404 19.564C3.53969 20 4.65979 20 6.9 20H14.1C16.3402 20 17.4603 20 18.316 19.564C19.0686 19.1805 19.6805 18.5686 20.064 17.816C20.5 16.9603 20.5 15.8402 20.5 13.6V6.4C20.5 4.15979 20.5 3.03969 20.064 2.18404C19.6805 1.43139 19.0686 0.819467 18.316 0.435974C17.4603 0 16.3402 0 14.1 0H6.9C4.65979 0 3.53969 0 2.68404 0.435974C1.93139 0.819467 1.31947 1.43139 0.935974 2.18404ZM14.2443 9.59091L8.2485 6.06817C7.91378 5.87151 7.5 6.12386 7.5 6.52465V13.4754C7.5 13.8735 7.9088 14.1261 8.24342 13.9348L14.2392 10.5068C14.5846 10.3093 14.5875 9.79258 14.2443 9.59091Z"></path>
  </g></svg>